<svg width="34" height="51" viewBox="0 0 34 51" fill="none" xmlns="http://www.w3.org/2000/svg">
<g clip-path="url(#clip0)">
<path d="M31.8384 42.4071C33.2539 39.9166 34 37.089 34 34.2339V16.773C34 13.7527 33.1632 10.7807 31.5734 8.17321C28.4635 3.05463 23.0176 0 17 0C10.9824 0 5.5365 3.05463 2.42658 8.17321C0.836751 10.7807 0 13.7527 0 16.773V34.2339C0 37.089 0.746103 39.9166 2.16161 42.4071C5.16694 47.7115 10.8568 51.0069 17 51.0069C23.1431 51.0069 28.8261 47.7046 31.8384 42.4071ZM31.6222 34.2339C31.6222 36.69 30.9807 39.1186 29.7605 41.2651C27.1735 45.8264 22.2785 48.6677 16.993 48.6677C11.7075 48.6677 6.81255 45.8333 4.22559 41.2651C3.0123 39.1186 2.3708 36.6831 2.3708 34.2339V16.773C2.3708 14.1793 3.08901 11.62 4.4557 9.37718C7.13331 4.96722 11.8191 2.33913 17 2.33913C22.1809 2.33913 26.8667 4.96722 29.5443 9.3703C30.911 11.6131 31.6292 14.1724 31.6292 16.7661V34.2339H31.6222Z" fill="#DCE2FF"/>
<path d="M28.3868 40.3639C29.4676 38.4513 30.0463 36.2842 30.0463 34.0964V28.7095C30.0463 28.0628 29.5164 27.5399 28.8609 27.5399C28.2055 27.5399 27.6755 28.0628 27.6755 28.7095V34.0964C27.6755 35.8851 27.2083 37.6601 26.3158 39.2218C24.4261 42.5517 20.856 44.6294 17 44.6294C13.1439 44.6294 9.57379 42.5585 7.68413 39.2218C6.79857 37.6601 6.32441 35.8851 6.32441 34.0964V28.7095C6.32441 28.0628 5.79447 27.5399 5.13901 27.5399C4.48356 27.5399 3.95361 28.0628 3.95361 28.7095V34.0964C3.95361 36.2842 4.52539 38.4513 5.61317 40.3639C7.92121 44.4367 12.2863 46.9685 17 46.9685C21.7137 46.9685 26.0787 44.4367 28.3868 40.3639Z" fill="#DCE2FF"/>
<path d="M30.0463 20.1579V16.1951C30.0463 16.0919 30.0254 15.9887 29.9975 15.8924C29.5373 9.20521 23.8892 3.90088 17 3.90088C10.1107 3.90088 4.46264 9.20521 4.00242 15.8924C3.97453 15.9887 3.95361 16.0919 3.95361 16.1951V20.1579C3.95361 20.8046 4.48356 21.3274 5.13901 21.3274C5.79447 21.3274 6.32441 20.8046 6.32441 20.1579V16.773C6.32441 10.9664 11.1148 6.24001 17 6.24001C22.8851 6.24001 27.6755 10.9664 27.6755 16.773V20.1579C27.6755 20.8046 28.2055 21.3274 28.8609 21.3274C29.5164 21.3274 30.0463 20.8046 30.0463 20.1579Z" fill="#DCE2FF"/>
<path d="M30.0465 24.334C30.0465 23.6873 29.5166 23.1644 28.8611 23.1644C26.0301 23.1644 23.7221 25.4416 23.7221 28.2348C23.7221 28.283 23.7291 28.3243 23.736 28.3656C23.7291 28.4068 23.7221 28.4481 23.7221 28.4963V33.8832C23.7221 35.0046 23.4292 36.1191 22.8714 37.1029C21.679 39.2081 19.4337 40.5084 17.0071 40.5084C14.5806 40.5084 12.3353 39.2013 11.1429 37.1029C10.5851 36.1191 10.2922 35.0046 10.2922 33.8832V28.4963C10.2922 28.4481 10.2852 28.4068 10.2783 28.3656C10.2852 28.3243 10.2922 28.283 10.2922 28.2348C10.2922 25.4416 7.98418 23.1644 5.15317 23.1644C4.49772 23.1644 3.96777 23.6873 3.96777 24.334C3.96777 24.9807 4.49772 25.5036 5.15317 25.5036C6.68024 25.5036 7.92142 26.7282 7.92142 28.2348C7.92142 28.283 7.9284 28.3243 7.93537 28.3656C7.9284 28.4068 7.92142 28.4481 7.92142 28.4963V33.8832C7.92142 35.4036 8.31888 36.9172 9.07893 38.245C10.6897 41.0863 13.7368 42.8544 17.0141 42.8544C20.2984 42.8544 23.3386 41.0863 24.9493 38.245C25.7024 36.9103 26.1068 35.4036 26.1068 33.8832V28.4963C26.1068 28.4481 26.0998 28.4068 26.0929 28.3656C26.0998 28.3243 26.1068 28.283 26.1068 28.2348C26.1068 26.7282 27.348 25.5036 28.8751 25.5036C29.5166 25.5036 30.0465 24.9807 30.0465 24.334Z" fill="#DCE2FF"/>
<path d="M16.9512 38.6028C14.2806 38.5753 12.1538 36.3944 12.1538 33.7594V25.0289C12.1538 24.6987 11.9935 24.3891 11.7215 24.1965C9.44835 22.5453 8.10955 19.9516 8.10258 17.1447C8.09561 14.7987 9.023 12.5903 10.7035 10.9322C12.384 9.26731 14.6223 8.35229 17 8.35229C21.909 8.35229 25.8975 12.2875 25.8975 17.1309C25.8975 19.9448 24.5517 22.5453 22.2785 24.1965C22.0066 24.3891 21.8462 24.6987 21.8462 25.0289V33.8213C21.8462 36.4701 19.6428 38.6303 16.9512 38.6028ZM17 10.547C15.2219 10.547 13.5415 11.2349 12.2863 12.4802C11.0242 13.7254 10.3339 15.3766 10.3339 17.1378C10.3409 19.3806 11.4844 21.4446 13.395 22.6623C14.0156 23.0544 14.3852 23.7287 14.3852 24.4648V33.8282C14.3852 35.2523 15.5566 36.4081 17 36.4081C18.4434 36.4081 19.6149 35.2523 19.6149 33.8282V24.451C19.6149 23.7218 19.9844 23.0544 20.5981 22.6623C22.5156 21.4446 23.6592 19.3737 23.6592 17.124C23.6662 13.4984 20.6748 10.547 17 10.547Z" fill="#DCE2FF"/>
</g>
<defs>
<clipPath id="clip0">
<rect width="34" height="51" fill="white"/>
</clipPath>
</defs>
</svg>
